# xmcd
#
# Track frame offsets: 
#        150
#        70536
#        94174
#        113198
#        149567
#
# Disc length: 2251 seconds
#
# Revision: 1
# Processed by: cddbd v1.5.2PL0 Copyright (c) Steve Scherf et al.
# Submitted via: ExactAudioCopy v1.1
#
DISCID=4208c905
DTITLE=Gil Evans Orchestra - Out Of The Cool
DYEAR=1960
DGENRE=Jazz
TTITLE0=La Nevada
TTITLE1=Where Flamingos Fly
TTITLE2=Bilbao Song
TTITLE3=Stratusphunk
TTITLE4=Sunken Treasure
EXTD=
EXTT0=
EXTT1=
EXTT2=
EXTT3=
EXTT4=
PLAYORDER=
